<svg width="200" height="200" viewBox="0 0 200 200" fill="none" xmlns="http://www.w3.org/2000/svg">
<path d="M70.2292 17.7481C78.3348 20.4049 80.44 10.7007 81.1042 4.68908C81.1492 4.2838 81.3744 4.09242 81.7797 4.11493L96.0996 4.89172C96.4448 4.91423 96.6174 5.09436 96.6174 5.43209C96.685 18.1534 91.7766 32.3719 77.5355 34.8036C66.1201 36.7512 60.5362 30.9422 52.8022 24.1087C50.0252 21.6545 47.89 20.2286 46.3965 19.8308C38.9551 17.8269 36.4334 26.5517 36.0056 33.0587C35.9755 33.4789 35.7466 33.6778 35.3188 33.6553L20.9539 32.8898C20.5712 32.8748 20.376 32.6721 20.3685 32.2819C20.2897 20.5851 24.5339 7.00818 37.3002 3.49576C47.1282 0.793891 52.926 3.84475 60.2098 10.2504C63.2269 12.9073 66.683 16.5773 70.2292 17.7481Z" fill="black"/>
<path d="M32.7408 66.4605C44.4827 54.8312 60.0522 46.4892 76.9726 51.6115C89.8177 55.4954 95.3678 66.6856 97.1353 79.0692C97.2017 79.5496 97.1476 80.0408 96.9777 80.4989L74.4283 139.996C74.4038 140.053 74.3607 140.099 74.3062 140.128C74.2517 140.156 74.1891 140.165 74.1287 140.154C74.0683 140.142 74.0138 140.11 73.9741 140.063C73.9344 140.016 73.912 139.956 73.9105 139.895C73.888 124.404 73.8805 108.936 73.888 93.4904C73.888 89.4976 73.4301 85.5574 72.5145 81.6697C69.6888 69.6914 55.3014 68.8584 46.6554 73.8456C42.7227 76.1196 38.7037 79.3469 34.5983 83.5272C34.3357 83.7974 34.2043 84.1164 34.2043 84.4842V155.408C34.2043 155.783 34.0167 155.971 33.6414 155.971H10.563C10.1878 155.971 10.0001 155.783 10.0001 155.408V53.3114C10.0001 53.18 10.0523 53.054 10.1452 52.9611C10.2381 52.8682 10.3641 52.816 10.4955 52.816L29.4648 52.8273C29.78 52.8273 29.9564 52.9812 29.9939 53.2889L31.5362 66.0439C31.5523 66.1758 31.6051 66.3005 31.6886 66.4038C31.7721 66.5071 31.8829 66.5849 32.0085 66.6283C32.134 66.6717 32.2692 66.679 32.3987 66.6493C32.5282 66.6197 32.6467 66.5542 32.7408 66.4605Z" fill="black"/>
<path d="M156.058 164.696H104.487C104.413 164.696 104.341 164.719 104.281 164.761C104.22 164.803 104.174 164.863 104.149 164.932L92.4971 197.253C92.4717 197.322 92.4258 197.382 92.3654 197.425C92.305 197.467 92.2331 197.49 92.1593 197.49L70.3643 197.478C70.3064 197.478 70.2493 197.464 70.198 197.437C70.1466 197.411 70.1025 197.372 70.0694 197.324C70.0363 197.277 70.0151 197.222 70.0076 197.165C70.0001 197.107 70.0066 197.049 70.0266 196.994L118.649 68.8133C118.674 68.7441 118.72 68.6843 118.781 68.642C118.841 68.5998 118.913 68.577 118.987 68.5769H141.041C141.114 68.577 141.186 68.5998 141.247 68.642C141.307 68.6843 141.353 68.7441 141.378 68.8133L189.978 196.994C189.998 197.049 190.005 197.107 189.997 197.165C189.99 197.222 189.968 197.277 189.935 197.324C189.902 197.372 189.858 197.411 189.807 197.437C189.755 197.464 189.698 197.478 189.64 197.478L167.868 197.49C167.793 197.489 167.72 197.464 167.659 197.42C167.599 197.375 167.554 197.313 167.53 197.242L156.396 164.943C156.373 164.872 156.328 164.81 156.267 164.765C156.206 164.721 156.134 164.697 156.058 164.696ZM110.813 145.985L148.808 145.974C148.872 145.974 148.934 145.958 148.991 145.93C149.047 145.901 149.096 145.859 149.132 145.808C149.169 145.757 149.192 145.699 149.2 145.637C149.209 145.576 149.202 145.514 149.18 145.456L130.706 93.2089C130.654 93.0658 130.559 92.9422 130.434 92.8548C130.309 92.7675 130.16 92.7206 130.008 92.7206C129.856 92.7206 129.707 92.7675 129.582 92.8548C129.457 92.9422 129.362 93.0658 129.31 93.2089L110.712 145.839C110.707 145.855 110.706 145.873 110.708 145.89C110.711 145.907 110.717 145.923 110.727 145.937C110.737 145.951 110.75 145.963 110.765 145.971C110.78 145.98 110.796 145.984 110.813 145.985Z" fill="black"/>
</svg>
